<?xml version="1.0" standalone="yes"?>
<svg xmlns="http://www.w3.org/2000/svg" width="512" height="512">
<path style="fill:#00a9ec; stroke:none;" d="M0 0L0 512L512 512L512 0L0 0z"/>
<path style="fill:#b4e6f9; stroke:none;" d="M57 113C60.6987 114.552 65.0172 114 69 114L92 114L173 114L454 114C450.301 112.448 445.983 113 442 113L419 113L338 113L57 113z"/>
<path style="fill:#5cc8f2; stroke:none;" d="M454 113L455 114L454 113z"/>
<path style="fill:#6ccdf4; stroke:none;" d="M55 114L56 115L55 114z"/>
<path style="fill:#ffffff; stroke:none;" d="M56.1481 115.028C51.3588 117.864 53 126.329 53 131L53 177L53 340L53 380C53 384.137 51.5255 392.041 54.7423 395.258C56.5972 397.113 59.5849 396.962 62 396.996C67.3312 397.071 72.6683 397 78 397L145 397L372 397L432 397C438.14 397 450.422 399.331 455.682 395.821C459.711 393.132 458 384.165 458 380L458 334L458 171L458 130C458 126.166 459.411 118.693 456.397 115.742C454.505 113.89 451.441 114.038 449 114.004C443.336 113.925 437.665 114 432 114L365 114L141 114L80 114C73.643 114 61.7334 111.721 56.1481 115.028z"/>
<path style="fill:#a5e0f8; stroke:none;" d="M455 114L456 115L455 114z"/>
<path style="fill:#9cdef8; stroke:none;" d="M54 115L55 116L54 115z"/>
<path style="fill:#80d4f5; stroke:none;" d="M53 116L54 117L53 116z"/>
<path style="fill:#71cff4; stroke:none;" d="M65 126C71.4361 128.701 81.049 127 88 127L139 127C132.564 124.299 122.951 126 116 126L65 126z"/>
<path style="fill:#caedfb; stroke:none;" d="M151 126L151 306C152.769 301.785 152 296.536 152 292L152 266L152 172L152 141C152 136.191 152.875 130.469 151 126z"/>
<path style="fill:#71cff4; stroke:none;" d="M152 126C158.436 128.701 168.049 127 175 127L226 127C219.564 124.299 209.951 126 203 126L152 126z"/>
<path style="fill:#ebf8fe; stroke:none;" d="M226 126L226 250C227.552 246.301 227 241.983 227 238L227 218L227 154C227 145.729 229.206 133.639 226 126z"/>
<path style="fill:#caedfb; stroke:none;" d="M238 126L238 241C241.004 233.841 239 222.744 239 215L239 156C239 147.203 241.407 134.118 238 126z"/>
<path style="fill:#71cff4; stroke:none;" d="M239 126C245.678 128.802 255.784 127 263 127L317 127L317 176C318.981 171.28 318 165.08 318 160L318 126L239 126z"/>
<path style="fill:#88d7f6; stroke:none;" d="M330 126L330 168C331.552 164.301 331 159.983 331 156C331 147.203 333.407 134.118 330 126z"/>
<path style="fill:#71cff4; stroke:none;" d="M331 126C334.699 127.552 339.017 127 343 127L366 127L446 127C442.301 125.448 437.983 126 434 126L411 126L331 126z"/>
<path style="fill:#48c1f1; stroke:none;" d="M65 127L65 384C67.3949 378.293 66 370.154 66 364L66 320L66 184L66 145C66 139.381 67.1889 132.216 65 127z"/>
<path style="fill:#00a9ec; stroke:none;" d="M66 127L66 384L445 384L445 319L221 319L164 319C157.689 319 147.25 321.019 142.109 316.682C137.554 312.84 138 307.396 138 302L138 270L138 175C138 159.744 135.461 141.864 139 127L66 127z"/>
<path style="fill:#eef9fe; stroke:none;" d="M139 127L139 314C140.981 309.28 140 303.08 140 298L140 267L140 169L140 141C140 136.464 140.769 131.215 139 127z"/>
<path style="fill:#00a9ec; stroke:none;" d="M152 127C153.695 134.12 153 141.719 153 149L153 186L153 305L445 305L445 255L286 255L246 255C240.618 255 233.578 256.221 229.109 252.566C221.682 246.493 225 229.626 225 221L225 160C225 149.331 223.52 137.415 226 127L152 127z"/>
<path style="fill:#1cb2ee; stroke:none;" d="M239 127L239 241C242.306 233.121 240 220.534 240 212L240 153C240 145.256 242.004 134.159 239 127z"/>
<path style="fill:#00a9ec; stroke:none;" d="M240 127L240 241L445 241L445 181L352 181L331 181C326.821 180.993 322.464 181.183 319.434 177.772C316.003 173.909 317 167.765 317 163L317 127L240 127M331 127L331 167L445 167L445 127L331 127z"/>
<path style="fill:#2ab7ef; stroke:none;" d="M445 127L445 167C448.206 159.361 446 147.271 446 139C446 135.017 446.552 130.699 445 127z"/>
<path style="fill:#19b1ee; stroke:none;" d="M138 128L138 313C139.981 308.28 139 302.08 139 297L139 266L139 170L139 142C139 137.464 139.769 132.215 138 128z"/>
<path style="fill:#14b0ed; stroke:none;" d="M152 128L152 305C153.875 300.531 153 294.809 153 290L153 260L153 168L153 142C153 137.464 153.769 132.215 152 128M225 128L225 249C228.206 241.361 226 229.271 226 221L226 159C226 149.94 228.507 136.357 225 128z"/>
<path style="fill:#55c6f2; stroke:none;" d="M331 167C334.699 168.552 339.017 168 343 168L366 168L446 168C442.301 166.448 437.983 167 434 167L411 167L331 167z"/>
<path style="fill:#67ccf4; stroke:none;" d="M318 177L319 178L318 177z"/>
<path style="fill:#96dcf7; stroke:none;" d="M319 178L320 179L319 178z"/>
<path style="fill:#7cd3f5; stroke:none;" d="M320 179L321 180L320 179z"/>
<path style="fill:#88d7f6; stroke:none;" d="M322 180C325.959 181.661 330.74 181 335 181L360 181L446 181C442.041 179.339 437.26 180 433 180L408 180L322 180z"/>
<path style="fill:#2ab7ef; stroke:none;" d="M445 181L445 241C446.875 236.531 446 230.809 446 226L446 197C446 191.92 446.981 185.72 445 181z"/>
<path style="fill:#99ddf7; stroke:none;" d="M239 241C244.707 243.395 252.846 242 259 242L300 242L446 242C440.293 239.605 432.154 241 426 241L385 241L239 241z"/>
<path style="fill:#62caf3; stroke:none;" d="M226 250L227 251L226 250z"/>
<path style="fill:#8bd8f6; stroke:none;" d="M229 253L230 254L229 253z"/>
<path style="fill:#49c2f1; stroke:none;" d="M231 254C236.707 256.395 244.846 255 251 255L295 255L446 255C440.293 252.605 432.154 254 426 254L382 254L231 254z"/>
<path style="fill:#2ab7ef; stroke:none;" d="M445 255L445 305C446.769 300.785 446 295.536 446 291L446 268C446 263.74 446.661 258.959 445 255z"/>
<path style="fill:#75d0f5; stroke:none;" d="M152 305C159.4 308.105 170.993 306 179 306L238 306L446 306C438.6 302.895 427.007 305 419 305L360 305L152 305z"/>
<path style="fill:#73d0f5; stroke:none;" d="M139 314L140 315L139 314z"/>
<path style="fill:#a8e2f9; stroke:none;" d="M142 317L143 318L142 317z"/>
<path style="fill:#65cbf4; stroke:none;" d="M143 318C150.4 321.105 161.993 319 170 319L232 319L446 319C438.6 315.895 427.007 318 419 318L357 318L143 318z"/>
<path style="fill:#2ab7ef; stroke:none;" d="M445 319L445 384C447.085 379.031 446 372.35 446 367L446 335C446 329.92 446.981 323.72 445 319z"/>
<path style="fill:#63caf3; stroke:none;" d="M65 384C68.6987 385.552 73.0172 385 77 385L99 385L177 385L446 385C442.301 383.448 437.983 384 434 384L412 384L334 384L65 384z"/>
<path style="fill:#98dcf7; stroke:none;" d="M53 394L54 395L53 394z"/>
<path style="fill:#93daf6; stroke:none;" d="M55 396L56 397L55 396z"/>
<path style="fill:#b1e5f9; stroke:none;" d="M455 396L456 397L455 396z"/>
<path style="fill:#4dc3f2; stroke:none;" d="M56 397L57 398L56 397z"/>
<path style="fill:#b4e6f9; stroke:none;" d="M57 397C60.6987 398.552 65.0172 398 69 398L92 398L173 398L454 398C450.301 396.448 445.983 397 442 397L419 397L338 397L57 397z"/>
<path style="fill:#60c9f3; stroke:none;" d="M454 397L455 398L454 397z"/>
</svg>
